<svg xmlns="http://www.w3.org/2000/svg" width="900" height="240" role="img" aria-labelledby="title-explicit-document-views desc-explicit-document-views"><title id="title-explicit-document-views">Inspect workplan and design views (explicit-document-views)</title><desc id="desc-explicit-document-views">Synthetic TUI workflow. Input actions: workplan page-down design page-up q. Emitted events: none.</desc><rect width="100%" height="100%" fill="#101820"/><g fill="#d7f9ff" font-family="monospace" font-size="16"><text x="24" y="42">Inspect workplan and design views (explicit-document-views)</text><text x="24" y="66">AR: AR-S23  revision: 3</text><text x="24" y="90">DOCUMENTS: design &lt;-&gt; workplan</text><text x="24" y="114">DECISIONS: 3 anchored points</text><text x="24" y="138"></text><text x="24" y="162">INPUT: workplan page-down design page-up q</text><text x="24" y="186">EVENTS: none</text><text x="24" y="210"></text><text x="24" y="234">--- DOCUMENT PANE ---</text><text x="24" y="258">▶ ACTIVE DECISION ANCHOR: design:L10</text><text x="24" y="282">▶ HIGHLIGHT TARGET</text><text x="24" y="306"></text><text x="24" y="330">┏━━━━━━━━━━━━━━━━━━━━━━━━━━━━━━━━━━━━━━━━━━━━━━━━━━━━━━━━━━━━━━━━━━━━━━━━━━━━━━┓</text><text x="24" y="354">┃                               Design document                                ┃</text><text x="24" y="378">┗━━━━━━━━━━━━━━━━━━━━━━━━━━━━━━━━━━━━━━━━━━━━━━━━━━━━━━━━━━━━━━━━━━━━━━━━━━━━━━┛</text><text x="24" y="402"></text><text x="24" y="426">Scenario: Inspect workplan and design views                                     </text><text x="24" y="450"></text><text x="24" y="474"></text><text x="24" y="498">                                Design boundary                                 </text><text x="24" y="522"></text><text x="24" y="546">--- DECISIONS PANE ---</text><text x="24" y="570">Overall: 0/3 selected | 0 clarification requested | 0 blocked | 3 remaining | state unsaved</text><text x="24" y="594"></text><text x="24" y="618">▶ explicit-document-views-decision-1 [unresolved]  design:L10</text><text x="24" y="642">  explicit-document-views-decision-2 [unresolved]  workplan:L20</text><text x="24" y="666">  explicit-document-views-decision-3 [unresolved]  design:L30</text><text x="24" y="690"></text><text x="24" y="714">Decision: Inspect workplan and design views: decision 1</text><text x="24" y="738">  ▶ Conservative</text><text x="24" y="762">    Expedite</text><text x="24" y="786">--- HELPER PANE ---</text><text x="24" y="810">Work remains:</text><text x="24" y="834">- select a proposal for: explicit-document-views-decision-1, explicit-document-views-decision-2, explicit-document-views-decision-3</text><text x="24" y="858">- save the current decision state (s)</text><text x="24" y="882"></text><text x="24" y="906">Exit the TUI anyway?</text><text x="24" y="930">  No, stay    ▶ Yes, exit</text><text x="24" y="954">Use ←/→/↑/↓, then Enter.</text><text x="24" y="978"></text><text x="24" y="1002">Human-in-the-loop decision session complete</text></g></svg>
