<svg xmlns="http://www.w3.org/2000/svg" width="900" height="240" role="img" aria-labelledby="title-rollback-conflict-display desc-rollback-conflict-display"><title id="title-rollback-conflict-display">Inspect rollback and conflict state (rollback-conflict-display)</title><desc id="desc-rollback-conflict-display">Synthetic TUI workflow. Input actions: down enter. Emitted events: select.</desc><rect width="100%" height="100%" fill="#101820"/><g fill="#d7f9ff" font-family="monospace" font-size="16"><text x="24" y="42">Inspect rollback and conflict state (rollback-conflict-display)</text><text x="24" y="66">AR: AR-S29  revision: 6</text><text x="24" y="90">DOCUMENTS: design &lt;-&gt; workplan</text><text x="24" y="114">DECISIONS: 3 anchored points</text><text x="24" y="138"></text><text x="24" y="162">INPUT: down enter</text><text x="24" y="186">EVENTS: select</text><text x="24" y="210"></text><text x="24" y="234">--- DOCUMENT PANE ---</text><text x="24" y="258">▶ ACTIVE DECISION ANCHOR: workplan:L20</text><text x="24" y="282">▶ HIGHLIGHT TARGET</text><text x="24" y="306"></text><text x="24" y="330">┏━━━━━━━━━━━━━━━━━━━━━━━━━━━━━━━━━━━━━━━━━━━━━━━━━━━━━━━━━━━━━━━━━━━━━━━━━━━━━━┓</text><text x="24" y="354">┃                               Design document                                ┃</text><text x="24" y="378">┗━━━━━━━━━━━━━━━━━━━━━━━━━━━━━━━━━━━━━━━━━━━━━━━━━━━━━━━━━━━━━━━━━━━━━━━━━━━━━━┛</text><text x="24" y="402"></text><text x="24" y="426">Scenario: Inspect rollback and conflict state                                   </text><text x="24" y="450"></text><text x="24" y="474"></text><text x="24" y="498">                                Design boundary                                 </text><text x="24" y="522"></text><text x="24" y="546">--- DECISIONS PANE ---</text><text x="24" y="570">Overall: 1/3 selected | 0 clarification requested | 0 blocked | 2 remaining | state unsaved</text><text x="24" y="594"></text><text x="24" y="618">  rollback-conflict-display-decision-1 [unresolved]  design:L10</text><text x="24" y="642">▶ rollback-conflict-display-decision-2 [✅ answered]  workplan:L20  rollback:rollback-conflict-display-decision-1 | conflict:new evidence diverged from the earlier choice</text><text x="24" y="666">  rollback-conflict-display-decision-3 [unresolved]  design:L30</text><text x="24" y="690"></text><text x="24" y="714">Decision: Inspect rollback and conflict state: decision 2</text><text x="24" y="738">  ▶ Conservative</text><text x="24" y="762">--- HELPER PANE ---</text><text x="24" y="786">Work remains:</text><text x="24" y="810">- select a proposal for: rollback-conflict-display-decision-1, rollback-conflict-display-decision-3</text><text x="24" y="834">- save the current decision state (s)</text><text x="24" y="858"></text><text x="24" y="882">Exit the TUI anyway?</text><text x="24" y="906">  No, stay    ▶ Yes, exit</text><text x="24" y="930">Use ←/→/↑/↓, then Enter.</text><text x="24" y="954"></text><text x="24" y="978">Human-in-the-loop decision session complete</text></g></svg>
