<svg xmlns="http://www.w3.org/2000/svg" width="900" height="240" role="img" aria-labelledby="title-transport-roundtrip desc-transport-roundtrip"><title id="title-transport-roundtrip">Complete transport round trip (transport-roundtrip)</title><desc id="desc-transport-roundtrip">Synthetic TUI workflow. Input actions: enter s. Emitted events: select -&gt; safe-exit.</desc><rect width="100%" height="100%" fill="#101820"/><g fill="#d7f9ff" font-family="monospace" font-size="16"><text x="24" y="42">Complete transport round trip (transport-roundtrip)</text><text x="24" y="66">AR: AR-S14  revision: 2</text><text x="24" y="90">DOCUMENTS: design &lt;-&gt; workplan</text><text x="24" y="114">DECISIONS: 3 anchored points</text><text x="24" y="138"></text><text x="24" y="162">INPUT: enter s</text><text x="24" y="186">EVENTS: select -&gt; safe-exit</text><text x="24" y="210"></text><text x="24" y="234">--- DOCUMENT PANE ---</text><text x="24" y="258">▶ ACTIVE DECISION ANCHOR: design:L10</text><text x="24" y="282">▶ HIGHLIGHT TARGET</text><text x="24" y="306"></text><text x="24" y="330">┏━━━━━━━━━━━━━━━━━━━━━━━━━━━━━━━━━━━━━━━━━━━━━━━━━━━━━━━━━━━━━━━━━━━━━━━━━━━━━━┓</text><text x="24" y="354">┃                               Design document                                ┃</text><text x="24" y="378">┗━━━━━━━━━━━━━━━━━━━━━━━━━━━━━━━━━━━━━━━━━━━━━━━━━━━━━━━━━━━━━━━━━━━━━━━━━━━━━━┛</text><text x="24" y="402"></text><text x="24" y="426">Scenario: Complete transport round trip                                         </text><text x="24" y="450"></text><text x="24" y="474"></text><text x="24" y="498">                                Design boundary                                 </text><text x="24" y="522"></text><text x="24" y="546">--- DECISIONS PANE ---</text><text x="24" y="570">Overall: 1/3 selected | 0 clarification requested | 0 blocked | 2 remaining | state saved</text><text x="24" y="594"></text><text x="24" y="618">▶ transport-roundtrip-decision-1 [✅ answered]  design:L10</text><text x="24" y="642">  transport-roundtrip-decision-2 [unresolved]  workplan:L20</text><text x="24" y="666">  transport-roundtrip-decision-3 [unresolved]  design:L30</text><text x="24" y="690"></text><text x="24" y="714">Decision: Complete transport round trip: decision 1</text><text x="24" y="738">  ▶ Conservative</text><text x="24" y="762">--- HELPER PANE ---</text><text x="24" y="786">Work remains:</text><text x="24" y="810">- select a proposal for: transport-roundtrip-decision-2, transport-roundtrip-decision-3</text><text x="24" y="834"></text><text x="24" y="858">Exit the TUI anyway?</text><text x="24" y="882">  No, stay    ▶ Yes, exit</text><text x="24" y="906">Use ←/→/↑/↓, then Enter.</text><text x="24" y="930"></text><text x="24" y="954">Human-in-the-loop decision session complete</text></g></svg>
